<?xml version="1.0" encoding="UTF-8" standalone="no"?>
<!-- Created with Inkscape (http://www.inkscape.org/) -->

<svg
   xmlns:dc="http://purl.org/dc/elements/1.1/"
   xmlns:cc="http://creativecommons.org/ns#"
   xmlns:rdf="http://www.w3.org/1999/02/22-rdf-syntax-ns#"
   xmlns:svg="http://www.w3.org/2000/svg"
   xmlns="http://www.w3.org/2000/svg"
   xmlns:sodipodi="http://sodipodi.sourceforge.net/DTD/sodipodi-0.dtd"
   xmlns:inkscape="http://www.inkscape.org/namespaces/inkscape"
   width="691.37366mm"
   height="127.41828mm"
   viewBox="0 0 2449.7492 451.4821"
   id="svg2"
   version="1.1"
   inkscape:version="0.92.1 r15371"
   sodipodi:docname="nixos-custom.svg">
  <defs
     id="defs4" />
  <sodipodi:namedview
     id="base"
     pagecolor="#ffffff"
     bordercolor="#666666"
     borderopacity="1.0"
     inkscape:pageopacity="0.0"
     inkscape:pageshadow="2"
     inkscape:zoom="0.57838577"
     inkscape:cx="977.69078"
     inkscape:cy="321.53954"
     inkscape:document-units="px"
     inkscape:current-layer="layer2"
     showgrid="true"
     inkscape:window-width="3836"
     inkscape:window-height="2126"
     inkscape:window-x="0"
     inkscape:window-y="30"
     inkscape:window-maximized="0"
     inkscape:snap-global="true"
     fit-margin-top="0"
     fit-margin-left="0"
     fit-margin-right="0"
     fit-margin-bottom="0" />
  <metadata
     id="metadata7">
    <rdf:RDF>
      <cc:Work
         rdf:about="">
        <dc:format>image/svg+xml</dc:format>
        <dc:type
           rdf:resource="http://purl.org/dc/dcmitype/StillImage" />
        <dc:title />
      </cc:Work>
    </rdf:RDF>
  </metadata>
  <g
     inkscape:label="print-logo"
     inkscape:groupmode="layer"
     id="layer1"
     style="display:inline"
     transform="translate(-156.33871,940.86833)">
    <path
       style="color:#000000;clip-rule:nonzero;display:inline;overflow:visible;visibility:visible;opacity:1;isolation:auto;mix-blend-mode:normal;color-interpolation:sRGB;color-interpolation-filters:linearRGB;solid-color:#000000;solid-opacity:1;fill:#5277c3;fill-opacity:1;fill-rule:evenodd;stroke:none;stroke-width:3;stroke-linecap:butt;stroke-linejoin:round;stroke-miterlimit:4;stroke-dasharray:none;stroke-dashoffset:0;stroke-opacity:1;color-rendering:auto;image-rendering:auto;shape-rendering:auto;text-rendering:auto;enable-background:accumulate"
       d="m 309.40365,-710.2521 122.19683,211.6751 -56.15706,0.5268 -32.6236,-56.8692 -32.85645,56.5653 -27.90237,-0.011 -14.29086,-24.6896 46.81047,-80.4902 -33.22946,-57.8256 z"
       id="path4861"
       inkscape:connector-curvature="0"
       sodipodi:nodetypes="cccccccccc" />
    <path
       style="color:#000000;clip-rule:nonzero;display:inline;overflow:visible;visibility:visible;opacity:1;isolation:auto;mix-blend-mode:normal;color-interpolation:sRGB;color-interpolation-filters:linearRGB;solid-color:#000000;solid-opacity:1;fill:#7ebae4;fill-opacity:1;fill-rule:evenodd;stroke:none;stroke-width:3;stroke-linecap:butt;stroke-linejoin:round;stroke-miterlimit:4;stroke-dasharray:none;stroke-dashoffset:0;stroke-opacity:1;color-rendering:auto;image-rendering:auto;shape-rendering:auto;text-rendering:auto;enable-background:accumulate"
       d="m 353.50926,-797.4433 -122.21756,211.6631 -28.53477,-48.37 32.93839,-56.6875 -65.41521,-0.1719 -13.9414,-24.1698 14.23637,-24.721 93.11177,0.2939 33.46371,-57.6903 z"
       id="use4863"
       inkscape:connector-curvature="0"
       sodipodi:nodetypes="cccccccccc" />
    <path
       style="color:#000000;clip-rule:nonzero;display:inline;overflow:visible;visibility:visible;opacity:1;isolation:auto;mix-blend-mode:normal;color-interpolation:sRGB;color-interpolation-filters:linearRGB;solid-color:#000000;solid-opacity:1;fill:#7ebae4;fill-opacity:1;fill-rule:evenodd;stroke:none;stroke-width:3;stroke-linecap:butt;stroke-linejoin:round;stroke-miterlimit:4;stroke-dasharray:none;stroke-dashoffset:0;stroke-opacity:1;color-rendering:auto;image-rendering:auto;shape-rendering:auto;text-rendering:auto;enable-background:accumulate"
       d="m 362.88537,-628.243 244.41439,0.012 -27.62229,48.8968 -65.56199,-0.1817 32.55876,56.7371 -13.96098,24.1585 -28.52722,0.032 -46.3013,-80.7841 -66.69317,-0.1353 z"
       id="use4865"
       inkscape:connector-curvature="0"
       sodipodi:nodetypes="cccccccccc" />
    <path
       style="color:#000000;clip-rule:nonzero;display:inline;overflow:visible;visibility:visible;opacity:1;isolation:auto;mix-blend-mode:normal;color-interpolation:sRGB;color-interpolation-filters:linearRGB;solid-color:#000000;solid-opacity:1;fill:#7ebae4;fill-opacity:1;fill-rule:evenodd;stroke:none;stroke-width:3;stroke-linecap:butt;stroke-linejoin:round;stroke-miterlimit:4;stroke-dasharray:none;stroke-dashoffset:0;stroke-opacity:1;color-rendering:auto;image-rendering:auto;shape-rendering:auto;text-rendering:auto;enable-background:accumulate"
       d="m 505.14318,-720.9886 -122.19683,-211.6751 56.15706,-0.5268 32.6236,56.8692 32.85645,-56.5653 27.90237,0.011 14.29086,24.6896 -46.81047,80.4902 33.22946,57.8256 z"
       id="use4867"
       inkscape:connector-curvature="0"
       sodipodi:nodetypes="cccccccccc" />
    <path
       sodipodi:nodetypes="cccccccccc"
       inkscape:connector-curvature="0"
       id="path4873"
       d="m 309.40365,-710.2521 122.19683,211.6751 -56.15706,0.5268 -32.6236,-56.8692 -32.85645,56.5653 -27.90237,-0.011 -14.29086,-24.6896 46.81047,-80.4902 -33.22946,-57.8256 z"
       style="color:#000000;clip-rule:nonzero;display:inline;overflow:visible;visibility:visible;opacity:1;isolation:auto;mix-blend-mode:normal;color-interpolation:sRGB;color-interpolation-filters:linearRGB;solid-color:#000000;solid-opacity:1;fill:#5277c3;fill-opacity:1;fill-rule:evenodd;stroke:none;stroke-width:3;stroke-linecap:butt;stroke-linejoin:round;stroke-miterlimit:4;stroke-dasharray:none;stroke-dashoffset:0;stroke-opacity:1;color-rendering:auto;image-rendering:auto;shape-rendering:auto;text-rendering:auto;enable-background:accumulate" />
    <path
       sodipodi:nodetypes="cccccccccc"
       inkscape:connector-curvature="0"
       id="use4875"
       d="m 451.3364,-803.53264 -244.4144,-0.012 27.62229,-48.89685 65.56199,0.18175 -32.55875,-56.73717 13.96097,-24.15851 28.52722,-0.0315 46.3013,80.78414 66.69317,0.13524 z"
       style="color:#000000;clip-rule:nonzero;display:inline;overflow:visible;visibility:visible;opacity:1;isolation:auto;mix-blend-mode:normal;color-interpolation:sRGB;color-interpolation-filters:linearRGB;solid-color:#000000;solid-opacity:1;fill:#5277c3;fill-opacity:1;fill-rule:evenodd;stroke:none;stroke-width:3;stroke-linecap:butt;stroke-linejoin:round;stroke-miterlimit:4;stroke-dasharray:none;stroke-dashoffset:0;stroke-opacity:1;color-rendering:auto;image-rendering:auto;shape-rendering:auto;text-rendering:auto;enable-background:accumulate" />
    <path
       sodipodi:nodetypes="cccccccccc"
       inkscape:connector-curvature="0"
       id="use4877"
       d="m 460.87178,-633.8425 122.21757,-211.66304 28.53477,48.37003 -32.93839,56.68751 65.4152,0.1718 13.9414,24.1698 -14.23636,24.7211 -93.11177,-0.294 -33.46371,57.6904 z"
       style="color:#000000;clip-rule:nonzero;display:inline;overflow:visible;visibility:visible;opacity:1;isolation:auto;mix-blend-mode:normal;color-interpolation:sRGB;color-interpolation-filters:linearRGB;solid-color:#000000;solid-opacity:1;fill:#5277c3;fill-opacity:1;fill-rule:evenodd;stroke:none;stroke-width:3;stroke-linecap:butt;stroke-linejoin:round;stroke-miterlimit:4;stroke-dasharray:none;stroke-dashoffset:0;stroke-opacity:1;color-rendering:auto;image-rendering:auto;shape-rendering:auto;text-rendering:auto;enable-background:accumulate" />
  </g>
  <g
     inkscape:groupmode="layer"
     id="layer2"
     inkscape:label="text-2"
     transform="translate(-23.75651,-17.17189)">
    <text
       style="font-style:normal;font-variant:normal;font-weight:normal;font-stretch:normal;font-size:125px;line-height:125%;font-family:'Arial Black';-inkscape-font-specification:'Arial Black, Normal';font-variant-ligatures:normal;font-variant-caps:normal;font-variant-numeric:normal;font-feature-settings:normal;text-align:center;letter-spacing:0px;word-spacing:0px;writing-mode:lr-tb;text-anchor:middle;fill:#808080;stroke-width:3.45105267"
       xml:space="preserve"
       transform="scale(0.70188412,1.4247366)"
       line-height="125%"
       font-size="35.978px"
       y="302.63464"
       x="2150.9253"
       id="text329"><tspan
         style="font-style:normal;font-variant:normal;font-weight:normal;font-stretch:normal;font-size:125px;font-family:'Arial Black';-inkscape-font-specification:'Arial Black, Normal';font-variant-ligatures:normal;font-variant-caps:normal;font-variant-numeric:normal;font-feature-settings:normal;text-align:center;writing-mode:lr-tb;text-anchor:middle;fill:#000000;stroke-width:3.45105267"
         font-size="33.464px"
         y="302.63464"
         x="2150.9253"
         id="tspan327">The Purely Functional Linux Distribution</tspan></text>
  </g>
  <g
     style="display:inline"
     inkscape:label="text-vegur"
     id="g5329"
     inkscape:groupmode="layer"
     transform="translate(-156.33871,940.86833)">
    <g
       aria-label="Nix"
       style="font-style:normal;font-variant:normal;font-weight:normal;font-stretch:normal;font-size:395.09683228px;line-height:125%;font-family:Carlito;-inkscape-font-specification:Carlito;letter-spacing:0px;word-spacing:0px;display:inline;opacity:1;fill:#000000;fill-opacity:1;stroke:none;stroke-width:1px;stroke-linecap:butt;stroke-linejoin:miter;stroke-opacity:1"
       id="text5407"
       transform="translate(-78.75,-93.75)">
      <path
         d="m 969.15319,-847.11833 h -30.81755 v 139.86428 c 0,19.75484 0.79019,50.96749 1.97548,85.73601 h -1.18529 c -15.40877,-28.84207 -32.79303,-56.49884 -45.04104,-75.46349 l -96.79872,-150.1368 h -42.27536 v 267.87565 h 30.81755 v -139.86427 c 0,-19.75485 -0.79019,-56.89395 -1.97548,-91.26737 h 1.18529 c 22.91561,39.90478 36.34891,62.0302 48.99201,80.99485 l 96.79872,150.13679 h 38.32439 z"
         style="font-style:normal;font-variant:normal;font-weight:normal;font-stretch:normal;font-family:Vegur;-inkscape-font-specification:Vegur"
         id="path4683"
         inkscape:connector-curvature="0" />
      <path
         d="m 1027.8251,-579.24268 h 33.1881 v -191.22686 h -33.1881 z m 16.594,-219.27874 c 11.4578,0 20.5451,-9.08722 20.5451,-20.54503 0,-11.45781 -9.0873,-20.54504 -20.5451,-20.54504 -11.4578,0 -20.545,9.08723 -20.545,20.54504 0,11.45781 9.0872,20.54503 20.545,20.54503 z"
         style="font-style:normal;font-variant:normal;font-weight:normal;font-stretch:normal;font-family:Vegur;-inkscape-font-specification:Vegur"
         id="path4685"
         inkscape:connector-curvature="0" />
      <path
         d="m 1267.7785,-770.46954 h -37.9293 l -46.6214,70.32723 h -1.1853 l -45.0411,-70.32723 h -41.09 l 68.3517,93.24285 v 1.18529 l -70.7223,96.79872 h 37.9293 l 49.7822,-75.85859 h 1.1853 l 49.7822,75.85859 h 41.09 l -72.3027,-98.37911 v -1.18529 z"
         style="font-style:normal;font-variant:normal;font-weight:normal;font-stretch:normal;font-family:Vegur;-inkscape-font-specification:Vegur"
         id="path4687"
         inkscape:connector-curvature="0" />
    </g>
    <g
       aria-label="O"
       transform="matrix(0.95067318,0,0,1.0518862,-78.75,-93.75)"
       style="font-style:normal;font-variant:normal;font-weight:normal;font-stretch:normal;font-size:367.48727417px;line-height:125%;font-family:Carlito;-inkscape-font-specification:Carlito;letter-spacing:0px;word-spacing:0px;display:inline;opacity:1;fill:#000000;fill-opacity:1;stroke:none;stroke-width:1px;stroke-linecap:butt;stroke-linejoin:miter;stroke-opacity:1"
       id="text5356">
      <path
         d="m 1468.5915,-800.79725 c -66.1477,0 -120.5358,48.14083 -120.5358,128.25306 0,80.11223 54.3881,128.25306 120.5358,128.25306 66.1477,0 120.5359,-48.14083 120.5359,-128.25306 0,-80.11223 -54.3882,-128.25306 -120.5359,-128.25306 z m 0,24.98914 c 49.2433,0 86.727,36.74872 86.727,103.26392 0,66.5152 -37.4837,103.26392 -86.727,103.26392 -49.2433,0 -86.727,-36.74872 -86.727,-103.26392 0,-66.5152 37.4837,-103.26392 86.727,-103.26392 z"
         style="font-style:normal;font-variant:normal;font-weight:normal;font-stretch:normal;font-family:Vegur;-inkscape-font-specification:Vegur"
         id="path4680"
         inkscape:connector-curvature="0" />
    </g>
    <g
       aria-label="S"
       style="font-style:normal;font-variant:normal;font-weight:normal;font-stretch:normal;font-size:386.55480957px;line-height:125%;font-family:Carlito;-inkscape-font-specification:Carlito;letter-spacing:0px;word-spacing:0px;display:inline;opacity:1;fill:#000000;fill-opacity:1;stroke:none;stroke-width:1px;stroke-linecap:butt;stroke-linejoin:miter;stroke-opacity:1"
       id="text5364"
       transform="translate(-78.75,-93.75)">
      <path
         d="m 1523.761,-773.88643 c 0,37.10927 19.3277,57.21012 64.1681,75.37819 34.4034,13.91598 48.3193,26.28573 48.3193,51.79835 0,30.92438 -25.126,46.38657 -58.3697,46.38657 -17.395,0 -37.1093,-2.70588 -58.7564,-10.05042 l -3.479,26.67228 c 18.9412,6.95799 39.8152,9.66387 60.6891,9.66387 51.7984,0 95.0925,-26.28573 95.0925,-79.24374 0,-36.7227 -22.4202,-54.50422 -67.6471,-72.6723 -30.1512,-11.9832 -44.8403,-24.73951 -44.8403,-51.41179 0,-25.89917 22.4202,-40.2017 50.6387,-40.2017 16.6218,0 34.7899,4.2521 47.5462,9.27732 l 3.479,-26.28573 c -14.6891,-6.18488 -32.8572,-9.27732 -52.958,-9.27732 -47.5463,0 -83.8824,27.4454 -83.8824,69.96642 z"
         style="font-style:normal;font-variant:normal;font-weight:normal;font-stretch:normal;font-family:Vegur;-inkscape-font-specification:Vegur"
         id="path4677"
         inkscape:connector-curvature="0" />
    </g>
  </g>
</svg>
